<svg width="91" height="91" viewBox="0 0 91 91" fill="none" xmlns="http://www.w3.org/2000/svg">
<path d="M90.6422 43.8899V33.1046C90.6422 32 89.7468 31.1046 88.6422 31.1046H61.3468C60.2422 31.1046 59.3468 30.2092 59.3468 29.1046V2C59.3468 0.895433 58.4514 0 57.3468 0H33.2954C32.1909 0 31.2954 0.895431 31.2954 2V29.2954C31.2954 30.4 30.4 31.2954 29.2954 31.2954H2.00002C0.895454 31.2954 2.28882e-05 32.1908 2.28882e-05 33.2954V57.3468C2.28882e-05 58.4514 0.895454 59.3468 2.00002 59.3468H29.2954C30.4 59.3468 31.2954 60.2422 31.2954 61.3468V88.6422C31.2954 89.7468 32.1909 90.6422 33.2954 90.6422H57.3468C58.4514 90.6422 59.3468 89.7468 59.3468 88.6422V61.3468C59.3468 60.2422 60.2422 59.3468 61.3468 59.3468H88.6422C89.7468 59.3468 90.6422 58.4513 90.6422 57.3468V43.8899ZM82.7266 37.211C83.8312 37.211 84.7266 38.1064 84.7266 39.211V51.2404C84.7266 52.3449 83.8312 53.2404 82.7266 53.2404H55.4312C54.3266 53.2404 53.4312 54.1358 53.4312 55.2404V82.5358C53.4312 83.6403 52.5358 84.5358 51.4312 84.5358H39.4019C38.2973 84.5358 37.4019 83.6403 37.4019 82.5358V55.2404C37.4019 54.1358 36.5064 53.2404 35.4019 53.2404H8.10644C7.00187 53.2404 6.10644 52.3449 6.10644 51.2404V39.211C6.10644 38.1064 7.00187 37.211 8.10644 37.211H35.4019C36.5064 37.211 37.4019 36.3156 37.4019 35.211V7.9156C37.4019 6.81103 38.2973 5.91559 39.4019 5.91559H51.4312C52.5358 5.91559 53.4312 6.81103 53.4312 7.91559V35.211C53.4312 36.3156 54.3266 37.211 55.4312 37.211H82.7266Z" fill="#99BDD1"/>
</svg>
