<svg width="24" height="19" viewBox="0 0 24 19" fill="none" xmlns="http://www.w3.org/2000/svg">
<path d="M21 0H2.33333C1.05 0 0.0116667 1.05 0.0116667 2.33333L0 16.3333C0 17.6167 1.05 18.6667 2.33333 18.6667H21C22.2833 18.6667 23.3333 17.6167 23.3333 16.3333V2.33333C23.3333 1.05 22.2833 0 21 0ZM20.5333 4.95833L12.285 10.115C11.9117 10.3483 11.4217 10.3483 11.0483 10.115L2.8 4.95833C2.68302 4.89266 2.58057 4.80394 2.49887 4.69753C2.41717 4.59112 2.35791 4.46924 2.32467 4.33927C2.29144 4.20929 2.28492 4.07392 2.30552 3.94136C2.32611 3.80879 2.37339 3.68178 2.4445 3.56802C2.5156 3.45425 2.60904 3.3561 2.71918 3.27949C2.82932 3.20289 2.95385 3.14943 3.08524 3.12235C3.21664 3.09527 3.35216 3.09513 3.48361 3.12194C3.61506 3.14875 3.73971 3.20196 3.85 3.27833L11.6667 8.16667L19.4833 3.27833C19.5936 3.20196 19.7183 3.14875 19.8497 3.12194C19.9812 3.09513 20.1167 3.09527 20.2481 3.12235C20.3795 3.14943 20.504 3.20289 20.6142 3.27949C20.7243 3.3561 20.8177 3.45425 20.8888 3.56802C20.9599 3.68178 21.0072 3.80879 21.0278 3.94136C21.0484 4.07392 21.0419 4.20929 21.0087 4.33927C20.9754 4.46924 20.9162 4.59112 20.8345 4.69753C20.7528 4.80394 20.6503 4.89266 20.5333 4.95833Z" fill="#00A4F4"/>
</svg>
