<svg width="91" height="91" viewBox="0 0 91 91" fill="none" xmlns="http://www.w3.org/2000/svg">
<path fill-rule="evenodd" clip-rule="evenodd" d="M90.6422 33.1046V43.89V57.3468C90.6422 58.4514 89.7468 59.3468 88.6422 59.3468H61.3468C60.2422 59.3468 59.3468 60.2423 59.3468 61.3468V88.6423C59.3468 89.7468 58.4514 90.6423 57.3468 90.6423H33.2954C32.1908 90.6423 31.2954 89.7468 31.2954 88.6423V61.3468C31.2954 60.2423 30.4 59.3468 29.2954 59.3468H2C0.895431 59.3468 0 58.4514 0 57.3468V33.2955C0 32.1909 0.895431 31.2955 2 31.2955H29.2954C30.4 31.2955 31.2954 30.4 31.2954 29.2955V2C31.2954 0.895431 32.1908 0 33.2954 0H57.3468C58.4514 0 59.3468 0.895433 59.3468 2V29.1046C59.3468 30.2092 60.2422 31.1046 61.3468 31.1046H88.6422C89.7468 31.1046 90.6422 32.0001 90.6422 33.1046Z" fill="url(#paint0_linear_76_605)"/>
<defs>
<linearGradient id="paint0_linear_76_605" x1="73.4514" y1="45.3211" x2="25.7933" y2="52.5607" gradientUnits="userSpaceOnUse">
<stop stop-color="#0179B4"/>
<stop offset="0.908717" stop-color="#88D8FF"/>
</linearGradient>
</defs>
</svg>
