<svg width="18" height="20" viewBox="0 0 18 20" fill="none" xmlns="http://www.w3.org/2000/svg">
<path d="M9 0C7.84502 0 6.73735 0.479498 5.92066 1.33301C5.10397 2.18652 4.64516 3.34413 4.64516 4.55118C4.64516 5.75823 5.10397 6.91584 5.92066 7.76935C6.73735 8.62286 7.84502 9.10236 9 9.10236C10.155 9.10236 11.2626 8.62286 12.0793 7.76935C12.896 6.91584 13.3548 5.75823 13.3548 4.55118C13.3548 3.34413 12.896 2.18652 12.0793 1.33301C11.2626 0.479498 10.155 0 9 0ZM4.35484 11.5297C3.19986 11.5297 2.09219 12.0091 1.2755 12.8627C0.458812 13.7162 0 14.8738 0 16.0808V17.5226C0 18.4377 0.634064 19.2169 1.49806 19.3637C6.46606 20.2121 11.5339 20.2121 16.5019 19.3637C16.9201 19.2926 17.3004 19.0683 17.5748 18.731C17.8493 18.3937 18 17.9654 18 17.5226V16.0808C18 14.8738 17.5412 13.7162 16.7245 12.8627C15.9078 12.0091 14.8001 11.5297 13.6452 11.5297H13.2503C13.0355 11.5297 12.8218 11.5661 12.6186 11.634L11.6129 11.9775C9.91505 12.5567 8.08495 12.5567 6.3871 11.9775L5.38142 11.634C5.17779 11.5648 4.96498 11.5295 4.75084 11.5297H4.35484Z" fill="#00A4F4"/>
</svg>
