<svg width="168" height="48" viewBox="0 0 168 48" fill="none" xmlns="http://www.w3.org/2000/svg">
<path d="M0 29.2174C0 26.8879 0.459162 24.5811 1.35133 22.429C2.2435 20.2767 3.55112 18.3212 5.19962 16.6739C6.84811 15.0267 8.80508 13.72 10.9589 12.8285C13.1128 11.9372 15.4213 11.4783 17.7526 11.4783V29.2174H0Z" fill="#00A4F4"/>
<path d="M0 29.2174C0 31.684 0.459162 34.1264 1.35133 36.4053C2.2435 38.6841 3.55112 40.7546 5.19962 42.4987C6.84811 44.2428 8.80508 45.6264 10.9589 46.5703C13.1128 47.5142 15.4213 48 17.7526 48V29.2174H0Z" fill="#2CBEFF"/>
<path d="M35.5052 29.2174C35.5052 31.684 35.0464 34.1264 34.1543 36.4053C33.2621 38.6841 31.9546 40.7546 30.3057 42.4987C28.6572 44.2428 26.7002 45.6264 24.5462 46.5703C22.3925 47.5142 20.0839 48 17.7526 48V29.2174H35.5052Z" fill="#75D4FF"/>
<path d="M46.9922 13.5652C46.9922 21.0571 40.914 27.1304 33.4166 27.1304H19.8412V13.5652C19.8412 6.07338 25.9192 0 33.4166 0C40.914 0 46.9922 6.07338 46.9922 13.5652Z" fill="#0084D4"/>
<path d="M61.4581 37V16.6364H63.924V25.7045H74.782V16.6364H77.2479V37H74.782V27.892H63.924V37H61.4581ZM88.2699 37.3182C86.7983 37.3182 85.5289 36.9934 84.4617 36.3437C83.4011 35.6875 82.5824 34.7727 82.0057 33.5994C81.4356 32.4195 81.1506 31.0473 81.1506 29.4829C81.1506 27.9186 81.4356 26.5398 82.0057 25.3466C82.5824 24.1468 83.3845 23.2121 84.412 22.5426C85.4461 21.8665 86.6525 21.5284 88.0313 21.5284C88.8267 21.5284 89.6123 21.661 90.3878 21.9261C91.1634 22.1913 91.8694 22.6222 92.5057 23.2187C93.1421 23.8087 93.6492 24.5909 94.027 25.5653C94.4049 26.5398 94.5938 27.7396 94.5938 29.1648V30.1591H82.8211V28.1307H92.2074C92.2074 27.2689 92.0351 26.5 91.6904 25.8239C91.3523 25.1477 90.8684 24.6141 90.2387 24.223C89.6156 23.8319 88.8798 23.6364 88.0313 23.6364C87.0966 23.6364 86.2879 23.8684 85.6051 24.3324C84.929 24.7898 84.4087 25.3864 84.0441 26.1222C83.6795 26.8579 83.4972 27.6468 83.4972 28.4886V29.8409C83.4972 30.9943 83.6961 31.9721 84.0938 32.7741C84.4981 33.5696 85.0583 34.1761 85.7742 34.5937C86.4901 35.0047 87.322 35.2102 88.2699 35.2102C88.8864 35.2102 89.4432 35.124 89.9404 34.9517C90.4442 34.7727 90.8783 34.5076 91.2429 34.1562C91.6075 33.7983 91.8892 33.3542 92.0881 32.8239L94.3551 33.4602C94.1165 34.2292 93.7155 34.9053 93.152 35.4886C92.5886 36.0653 91.8926 36.5161 91.064 36.8409C90.2354 37.1591 89.304 37.3182 88.2699 37.3182ZM102.658 37.3579C101.69 37.3579 100.812 37.1757 100.023 36.8111C99.2339 36.4399 98.6075 35.9062 98.1435 35.2102C97.6795 34.5076 97.4475 33.6591 97.4475 32.6648C97.4475 31.7898 97.6198 31.0805 97.9645 30.5369C98.3092 29.9867 98.7699 29.5559 99.3466 29.2443C99.9233 28.9328 100.56 28.7007 101.256 28.5483C101.958 28.3892 102.664 28.2633 103.374 28.1704C104.302 28.0511 105.054 27.9616 105.631 27.902C106.214 27.8357 106.638 27.7263 106.903 27.5739C107.175 27.4214 107.311 27.1562 107.311 26.7784V26.6989C107.311 25.7178 107.043 24.9555 106.506 24.4119C105.975 23.8684 105.17 23.5966 104.09 23.5966C102.969 23.5966 102.091 23.8418 101.455 24.3324C100.818 24.8229 100.371 25.3466 100.112 25.9034L97.885 25.1079C98.2827 24.1799 98.813 23.4574 99.4759 22.9403C100.145 22.4167 100.875 22.0521 101.663 21.8466C102.459 21.6345 103.241 21.5284 104.01 21.5284C104.501 21.5284 105.064 21.5881 105.7 21.7074C106.343 21.8201 106.963 22.0554 107.56 22.4133C108.163 22.7713 108.663 23.3115 109.061 24.0341C109.459 24.7566 109.658 25.7244 109.658 26.9375V37H107.311V34.9318H107.192C107.033 35.2632 106.768 35.6179 106.396 35.9957C106.025 36.3736 105.531 36.6951 104.915 36.9602C104.298 37.2254 103.546 37.3579 102.658 37.3579ZM103.016 35.25C103.944 35.25 104.726 35.0677 105.362 34.7031C106.005 34.3385 106.489 33.8679 106.814 33.2912C107.145 32.7145 107.311 32.1079 107.311 31.4716V29.3239C107.212 29.4432 106.993 29.5525 106.655 29.652C106.323 29.7448 105.939 29.8276 105.501 29.9006C105.071 29.9668 104.65 30.0265 104.239 30.0795C103.834 30.1259 103.506 30.1657 103.254 30.1989C102.644 30.2784 102.074 30.4077 101.544 30.5866C101.02 30.759 100.596 31.0208 100.271 31.3722C99.9532 31.7168 99.7941 32.1875 99.7941 32.7841C99.7941 33.5994 100.096 34.2159 100.699 34.6335C101.309 35.0445 102.081 35.25 103.016 35.25ZM116.287 16.6364V37H113.941V16.6364H116.287ZM137.051 16.6364V37H134.665L123.568 21.0114H123.369V37H120.903V16.6364H123.29L134.426 32.6648H134.625V16.6364H137.051ZM148.071 37.3182C146.599 37.3182 145.33 36.9934 144.262 36.3437C143.202 35.6875 142.383 34.7727 141.806 33.5994C141.236 32.4195 140.951 31.0473 140.951 29.4829C140.951 27.9186 141.236 26.5398 141.806 25.3466C142.383 24.1468 143.185 23.2121 144.213 22.5426C145.247 21.8665 146.453 21.5284 147.832 21.5284C148.628 21.5284 149.413 21.661 150.189 21.9261C150.964 22.1913 151.67 22.6222 152.306 23.2187C152.943 23.8087 153.45 24.5909 153.828 25.5653C154.206 26.5398 154.395 27.7396 154.395 29.1648V30.1591H142.622V28.1307H152.008C152.008 27.2689 151.836 26.5 151.491 25.8239C151.153 25.1477 150.669 24.6141 150.039 24.223C149.416 23.8319 148.681 23.6364 147.832 23.6364C146.897 23.6364 146.089 23.8684 145.406 24.3324C144.73 24.7898 144.209 25.3864 143.845 26.1222C143.48 26.8579 143.298 27.6468 143.298 28.4886V29.8409C143.298 30.9943 143.497 31.9721 143.895 32.7741C144.299 33.5696 144.859 34.1761 145.575 34.5937C146.291 35.0047 147.123 35.2102 148.071 35.2102C148.687 35.2102 149.244 35.124 149.741 34.9517C150.245 34.7727 150.679 34.5076 151.044 34.1562C151.408 33.7983 151.69 33.3542 151.889 32.8239L154.156 33.4602C153.917 34.2292 153.516 34.9053 152.953 35.4886C152.389 36.0653 151.693 36.5161 150.865 36.8409C150.036 37.1591 149.105 37.3182 148.071 37.3182ZM164.606 21.7273V23.7159H156.691V21.7273H164.606ZM158.998 18.0682H161.345V32.625C161.345 33.2879 161.441 33.785 161.633 34.1165C161.832 34.4413 162.084 34.66 162.389 34.7727C162.7 34.8788 163.029 34.9318 163.373 34.9318C163.632 34.9318 163.844 34.9186 164.01 34.892C164.175 34.8589 164.308 34.8324 164.407 34.8125L164.885 36.9204C164.726 36.9801 164.503 37.0398 164.218 37.0994C163.933 37.1657 163.572 37.1989 163.135 37.1989C162.472 37.1989 161.822 37.0563 161.186 36.7713C160.556 36.4863 160.032 36.0521 159.615 35.4687C159.204 34.8854 158.998 34.1496 158.998 33.2614V18.0682Z" fill="#0069AB"/>
</svg>
